<svg xmlns="http://www.w3.org/2000/svg" xmlns:xlink="http://www.w3.org/1999/xlink" width="1920" zoomAndPan="magnify" viewBox="0 0 1440 809.999993" height="1080" preserveAspectRatio="xMidYMid meet" version="1.0"><defs><g/><clipPath id="066b47fca3"><path d="M 13 163 L 225 163 L 225 675.222656 L 13 675.222656 Z M 13 163 " clip-rule="nonzero"/></clipPath><clipPath id="fb62f5e84a"><path d="M 164 134.472656 L 246 134.472656 L 246 216 L 164 216 Z M 164 134.472656 " clip-rule="nonzero"/></clipPath></defs><rect x="-144" width="1728" fill="#ffffff" y="-80.999999" height="971.999992" fill-opacity="1"/><rect x="-144" width="1728" fill="#ffffff" y="-80.999999" height="971.999992" fill-opacity="1"/><g clip-path="url(#066b47fca3)"><path fill="#161a40" d="M 19.703125 163.46875 C 19.703125 163.46875 164.347656 198.882812 164.347656 302.207031 C 160.40625 373.058594 87.902344 459.671875 70.5625 483.449219 C 53.222656 507.230469 -1.382812 572.109375 16.605469 675.546875 C 20.460938 631.863281 39.738281 569.546875 110.390625 513.003906 C 181.042969 456.460938 268.566406 377.917969 199.851562 254.847656 C 140.65625 151.65625 19.703125 163.46875 19.703125 163.46875 Z M 19.703125 163.46875 " fill-opacity="1" fill-rule="nonzero"/></g><g clip-path="url(#fb62f5e84a)"><path fill="#161a40" d="M 245.964844 175.214844 C 245.964844 176.546875 245.902344 177.878906 245.769531 179.207031 C 245.640625 180.535156 245.445312 181.851562 245.183594 183.160156 C 244.921875 184.46875 244.597656 185.761719 244.210938 187.039062 C 243.824219 188.316406 243.375 189.570312 242.863281 190.804688 C 242.355469 192.035156 241.785156 193.242188 241.15625 194.417969 C 240.527344 195.59375 239.839844 196.738281 239.101562 197.847656 C 238.359375 198.957031 237.566406 200.027344 236.71875 201.058594 C 235.871094 202.089844 234.976562 203.078125 234.035156 204.023438 C 233.089844 204.964844 232.101562 205.859375 231.070312 206.707031 C 230.039062 207.554688 228.96875 208.347656 227.859375 209.089844 C 226.75 209.828125 225.605469 210.515625 224.429688 211.144531 C 223.253906 211.773438 222.046875 212.34375 220.816406 212.851562 C 219.582031 213.363281 218.328125 213.8125 217.050781 214.199219 C 215.773438 214.585938 214.480469 214.910156 213.171875 215.171875 C 211.863281 215.433594 210.546875 215.628906 209.21875 215.757812 C 207.890625 215.890625 206.558594 215.953125 205.226562 215.953125 C 203.890625 215.953125 202.558594 215.890625 201.230469 215.757812 C 199.902344 215.628906 198.585938 215.433594 197.277344 215.171875 C 195.96875 214.910156 194.675781 214.585938 193.398438 214.199219 C 192.121094 213.8125 190.867188 213.363281 189.632812 212.851562 C 188.402344 212.34375 187.195312 211.773438 186.019531 211.144531 C 184.84375 210.515625 183.699219 209.828125 182.589844 209.089844 C 181.480469 208.347656 180.410156 207.554688 179.378906 206.707031 C 178.347656 205.859375 177.359375 204.964844 176.414062 204.023438 C 175.472656 203.078125 174.578125 202.089844 173.730469 201.058594 C 172.882812 200.027344 172.089844 198.957031 171.347656 197.847656 C 170.609375 196.738281 169.921875 195.59375 169.292969 194.417969 C 168.664062 193.242188 168.09375 192.035156 167.585938 190.804688 C 167.074219 189.570312 166.625 188.316406 166.238281 187.039062 C 165.851562 185.761719 165.527344 184.46875 165.265625 183.160156 C 165.003906 181.851562 164.808594 180.535156 164.679688 179.207031 C 164.546875 177.878906 164.484375 176.546875 164.484375 175.214844 C 164.484375 173.878906 164.546875 172.546875 164.679688 171.21875 C 164.808594 169.890625 165.003906 168.574219 165.265625 167.265625 C 165.527344 165.957031 165.851562 164.664062 166.238281 163.386719 C 166.625 162.109375 167.074219 160.855469 167.585938 159.621094 C 168.09375 158.390625 168.664062 157.183594 169.292969 156.007812 C 169.921875 154.832031 170.609375 153.6875 171.347656 152.578125 C 172.089844 151.46875 172.882812 150.398438 173.730469 149.367188 C 174.578125 148.335938 175.472656 147.347656 176.414062 146.402344 C 177.359375 145.460938 178.347656 144.566406 179.378906 143.71875 C 180.410156 142.871094 181.480469 142.078125 182.589844 141.335938 C 183.699219 140.597656 184.84375 139.910156 186.019531 139.28125 C 187.195312 138.652344 188.402344 138.082031 189.632812 137.574219 C 190.867188 137.0625 192.121094 136.613281 193.398438 136.226562 C 194.675781 135.839844 195.96875 135.515625 197.277344 135.253906 C 198.585938 134.992188 199.902344 134.796875 201.230469 134.667969 C 202.558594 134.535156 203.890625 134.472656 205.226562 134.472656 C 206.558594 134.472656 207.890625 134.535156 209.21875 134.667969 C 210.546875 134.796875 211.863281 134.992188 213.171875 135.253906 C 214.480469 135.515625 215.773438 135.839844 217.050781 136.226562 C 218.328125 136.613281 219.582031 137.0625 220.816406 137.574219 C 222.046875 138.082031 223.253906 138.652344 224.429688 139.28125 C 225.605469 139.910156 226.75 140.597656 227.859375 141.335938 C 228.96875 142.078125 230.039062 142.871094 231.070312 143.71875 C 232.101562 144.566406 233.089844 145.460938 234.035156 146.402344 C 234.976562 147.347656 235.871094 148.335938 236.71875 149.367188 C 237.566406 150.398438 238.359375 151.46875 239.101562 152.578125 C 239.839844 153.6875 240.527344 154.832031 241.15625 156.007812 C 241.785156 157.183594 242.355469 158.390625 242.863281 159.621094 C 243.375 160.855469 243.824219 162.109375 244.210938 163.386719 C 244.597656 164.664062 244.921875 165.957031 245.183594 167.265625 C 245.445312 168.574219 245.640625 169.890625 245.769531 171.21875 C 245.902344 172.546875 245.964844 173.878906 245.964844 175.214844 Z M 245.964844 175.214844 " fill-opacity="1" fill-rule="nonzero"/></g><g fill="#161a40" fill-opacity="1"><g transform="translate(310.802393, 457.856306)"><g><path d="M 4.390625 -78.828125 C 4.390625 -101.597656 12.148438 -120.875 27.671875 -136.65625 C 43.191406 -152.4375 61.894531 -160.328125 83.78125 -160.328125 C 105.800781 -160.328125 124.507812 -152.46875 139.90625 -136.75 C 155.300781 -121.03125 163 -101.722656 163 -78.828125 C 163 -55.796875 155.425781 -36.421875 140.28125 -20.703125 C 125.132812 -4.992188 106.300781 2.859375 83.78125 2.859375 C 60.75 2.859375 41.757812 -4.929688 26.8125 -20.515625 C 11.863281 -36.097656 4.390625 -55.535156 4.390625 -78.828125 Z M 43.140625 -78.828125 C 43.140625 -70.554688 44.410156 -63.015625 46.953125 -56.203125 C 49.492188 -49.398438 53.945312 -43.644531 60.3125 -38.9375 C 66.675781 -34.226562 74.5 -31.875 83.78125 -31.875 C 97.144531 -31.875 107.226562 -36.453125 114.03125 -45.609375 C 120.84375 -54.773438 124.25 -65.847656 124.25 -78.828125 C 124.25 -91.679688 120.78125 -102.71875 113.84375 -111.9375 C 106.914062 -121.164062 96.894531 -125.78125 83.78125 -125.78125 C 70.800781 -125.78125 60.78125 -121.164062 53.71875 -111.9375 C 46.664062 -102.71875 43.140625 -91.679688 43.140625 -78.828125 Z M 43.140625 -78.828125 "/></g></g></g><g fill="#161a40" fill-opacity="1"><g transform="translate(478.179165, 457.856306)"><g><path d="M 11.453125 -157.453125 L 68.90625 -157.453125 C 84.9375 -157.453125 97.910156 -153.316406 107.828125 -145.046875 C 117.753906 -136.773438 122.71875 -124.75 122.71875 -108.96875 C 122.71875 -93.195312 117.691406 -80.828125 107.640625 -71.859375 C 97.585938 -62.890625 84.675781 -58.40625 68.90625 -58.40625 L 47.328125 -58.40625 L 47.328125 0 L 11.453125 0 Z M 47.328125 -87.03125 L 57.453125 -87.03125 C 65.460938 -87.03125 72.046875 -88.648438 77.203125 -91.890625 C 82.359375 -95.140625 84.9375 -100.453125 84.9375 -107.828125 C 84.9375 -115.335938 82.359375 -120.710938 77.203125 -123.953125 C 72.046875 -127.203125 65.460938 -128.828125 57.453125 -128.828125 L 47.328125 -128.828125 Z M 47.328125 -87.03125 "/></g></g></g><g fill="#161a40" fill-opacity="1"><g transform="translate(605.286263, 457.856306)"><g><path d="M 4.390625 -78.828125 C 4.390625 -101.597656 12.148438 -120.875 27.671875 -136.65625 C 43.191406 -152.4375 61.894531 -160.328125 83.78125 -160.328125 C 105.800781 -160.328125 124.507812 -152.46875 139.90625 -136.75 C 155.300781 -121.03125 163 -101.722656 163 -78.828125 C 163 -55.796875 155.425781 -36.421875 140.28125 -20.703125 C 125.132812 -4.992188 106.300781 2.859375 83.78125 2.859375 C 60.75 2.859375 41.757812 -4.929688 26.8125 -20.515625 C 11.863281 -36.097656 4.390625 -55.535156 4.390625 -78.828125 Z M 43.140625 -78.828125 C 43.140625 -70.554688 44.410156 -63.015625 46.953125 -56.203125 C 49.492188 -49.398438 53.945312 -43.644531 60.3125 -38.9375 C 66.675781 -34.226562 74.5 -31.875 83.78125 -31.875 C 97.144531 -31.875 107.226562 -36.453125 114.03125 -45.609375 C 120.84375 -54.773438 124.25 -65.847656 124.25 -78.828125 C 124.25 -91.679688 120.78125 -102.71875 113.84375 -111.9375 C 106.914062 -121.164062 96.894531 -125.78125 83.78125 -125.78125 C 70.800781 -125.78125 60.78125 -121.164062 53.71875 -111.9375 C 46.664062 -102.71875 43.140625 -91.679688 43.140625 -78.828125 Z M 43.140625 -78.828125 "/></g></g></g><g fill="#161a40" fill-opacity="1"><g transform="translate(772.663035, 457.856306)"><g><path d="M 69.46875 -160.328125 C 78 -160.328125 86.332031 -159.082031 94.46875 -156.59375 C 102.613281 -154.113281 108.660156 -151.664062 112.609375 -149.25 L 118.328125 -145.4375 L 103.828125 -116.8125 C 102.679688 -117.570312 101.085938 -118.554688 99.046875 -119.765625 C 97.015625 -120.972656 93.195312 -122.59375 87.59375 -124.625 C 82 -126.664062 76.785156 -127.6875 71.953125 -127.6875 C 65.972656 -127.6875 61.359375 -126.410156 58.109375 -123.859375 C 54.867188 -121.316406 53.25 -117.882812 53.25 -113.5625 C 53.25 -111.394531 54.007812 -109.390625 55.53125 -107.546875 C 57.0625 -105.703125 59.671875 -103.726562 63.359375 -101.625 C 67.054688 -99.53125 70.300781 -97.847656 73.09375 -96.578125 C 75.894531 -95.304688 80.222656 -93.394531 86.078125 -90.84375 C 96.253906 -86.519531 104.9375 -80.632812 112.125 -73.1875 C 119.3125 -65.75 122.90625 -57.320312 122.90625 -47.90625 C 122.90625 -38.875 121.28125 -30.984375 118.03125 -24.234375 C 114.789062 -17.492188 110.335938 -12.210938 104.671875 -8.390625 C 99.015625 -4.578125 92.75 -1.75 85.875 0.09375 C 79.007812 1.9375 71.570312 2.859375 63.5625 2.859375 C 56.6875 2.859375 49.941406 2.15625 43.328125 0.75 C 36.710938 -0.644531 31.175781 -2.390625 26.71875 -4.484375 C 22.269531 -6.585938 18.265625 -8.65625 14.703125 -10.6875 C 11.140625 -12.71875 8.53125 -14.4375 6.875 -15.84375 L 4.390625 -17.9375 L 22.328125 -48.09375 C 23.859375 -46.820312 25.957031 -45.195312 28.625 -43.21875 C 31.300781 -41.25 36.039062 -38.609375 42.84375 -35.296875 C 49.65625 -31.992188 55.671875 -30.34375 60.890625 -30.34375 C 76.023438 -30.34375 83.59375 -35.5 83.59375 -45.8125 C 83.59375 -47.96875 83.050781 -49.96875 81.96875 -51.8125 C 80.894531 -53.65625 78.988281 -55.5 76.25 -57.34375 C 73.507812 -59.195312 71.085938 -60.660156 68.984375 -61.734375 C 66.890625 -62.816406 63.457031 -64.472656 58.6875 -66.703125 C 53.914062 -68.929688 50.382812 -70.617188 48.09375 -71.765625 C 38.550781 -76.472656 31.171875 -82.359375 25.953125 -89.421875 C 20.734375 -96.484375 18.125 -104.082031 18.125 -112.21875 C 18.125 -126.34375 23.34375 -137.890625 33.78125 -146.859375 C 44.21875 -155.835938 56.113281 -160.328125 69.46875 -160.328125 Z M 69.46875 -160.328125 "/></g></g></g><g fill="#161a40" fill-opacity="1"><g transform="translate(310.802393, 590.94755)"><g><path d="M 35.875 -19.625 L 23.4375 -19.625 L 23.4375 -25.34375 L 41.984375 -25.34375 L 41.984375 -2.296875 C 40.554688 -1.628906 38.007812 -0.976562 34.34375 -0.34375 C 30.6875 0.289062 27.359375 0.609375 24.359375 0.609375 C 16.460938 0.609375 11 -1.242188 7.96875 -4.953125 C 4.945312 -8.671875 3.4375 -15.007812 3.4375 -23.96875 C 3.4375 -32.414062 5.242188 -38.632812 8.859375 -42.625 C 12.472656 -46.625 18.144531 -48.625 25.875 -48.625 C 28.519531 -48.625 31.050781 -48.5625 33.46875 -48.4375 C 35.894531 -48.3125 37.867188 -48.125 39.390625 -47.875 L 39.390625 -42.140625 C 37.359375 -42.347656 35.15625 -42.5 32.78125 -42.59375 C 30.414062 -42.695312 28.113281 -42.75 25.875 -42.75 C 20.070312 -42.75 15.988281 -41.320312 13.625 -38.46875 C 11.257812 -35.625 10.078125 -30.789062 10.078125 -23.96875 C 10.078125 -20.613281 10.265625 -17.800781 10.640625 -15.53125 C 11.023438 -13.269531 11.648438 -11.453125 12.515625 -10.078125 C 13.535156 -8.347656 14.988281 -7.113281 16.875 -6.375 C 18.757812 -5.632812 21.503906 -5.265625 25.109375 -5.265625 C 26.535156 -5.265625 28.21875 -5.378906 30.15625 -5.609375 C 32.09375 -5.835938 34 -6.15625 35.875 -6.5625 Z M 35.875 -19.625 "/></g></g></g><g fill="#161a40" fill-opacity="1"><g transform="translate(390.663084, 590.94755)"><g><path d="M 37.25 -6.109375 L 37.25 0 L 5.5 0 L 5.5 -47.875 L 36.5625 -47.875 L 36.5625 -41.984375 L 11.984375 -41.984375 L 11.984375 -27.328125 L 33.75 -27.328125 L 33.75 -21.609375 L 11.984375 -21.609375 L 11.984375 -6.109375 Z M 37.25 -6.109375 "/></g></g></g><g fill="#161a40" fill-opacity="1"><g transform="translate(464.9504, 590.94755)"><g><path d="M 37.03125 -6.109375 L 37.03125 0 L 1.828125 0 L 1.828125 -6.109375 L 28.25 -41.984375 L 4.046875 -41.984375 L 4.046875 -47.875 L 35.578125 -47.875 L 35.578125 -41.984375 L 9.234375 -6.109375 Z M 37.03125 -6.109375 "/></g></g></g><g fill="#161a40" fill-opacity="1"><g transform="translate(538.092505, 590.94755)"><g><path d="M 46.109375 -24.046875 C 46.109375 -15.347656 44.441406 -9.0625 41.109375 -5.1875 C 37.773438 -1.320312 32.34375 0.609375 24.8125 0.609375 C 16.71875 0.609375 11.128906 -1.179688 8.046875 -4.765625 C 4.972656 -8.359375 3.4375 -14.785156 3.4375 -24.046875 C 3.4375 -32.703125 5.113281 -38.960938 8.46875 -42.828125 C 11.832031 -46.691406 17.28125 -48.625 24.8125 -48.625 C 32.90625 -48.625 38.476562 -46.828125 41.53125 -43.234375 C 44.582031 -39.648438 46.109375 -33.253906 46.109375 -24.046875 Z M 12.296875 -10.234375 C 13.253906 -8.503906 14.675781 -7.28125 16.5625 -6.5625 C 18.445312 -5.851562 21.195312 -5.5 24.8125 -5.5 C 30.457031 -5.5 34.320312 -6.859375 36.40625 -9.578125 C 38.5 -12.304688 39.546875 -17.128906 39.546875 -24.046875 C 39.546875 -27.503906 39.367188 -30.335938 39.015625 -32.546875 C 38.660156 -34.765625 38.097656 -36.5625 37.328125 -37.9375 C 36.359375 -39.664062 34.945312 -40.898438 33.09375 -41.640625 C 31.238281 -42.378906 28.476562 -42.75 24.8125 -42.75 C 19.113281 -42.75 15.21875 -41.375 13.125 -38.625 C 11.039062 -35.875 10 -31.015625 10 -24.046875 C 10 -20.585938 10.175781 -17.75 10.53125 -15.53125 C 10.882812 -13.320312 11.472656 -11.554688 12.296875 -10.234375 Z M 12.296875 -10.234375 "/></g></g></g><g fill="#161a40" fill-opacity="1"><g transform="translate(621.999621, 590.94755)"><g><path d="M 44.65625 -47.875 L 44.65625 0 L 38.09375 0 L 11.609375 -37.25 L 11.609375 0 L 5.5 0 L 5.5 -47.875 L 12.0625 -47.875 L 38.546875 -10.078125 L 38.546875 -47.875 Z M 44.65625 -47.875 "/></g></g></g><g fill="#161a40" fill-opacity="1"><g transform="translate(706.517507, 590.94755)"><g><path d="M 19.390625 0 L 5.5 0 L 5.5 -47.875 L 19.390625 -47.875 C 24.273438 -47.875 28.15625 -47.460938 31.03125 -46.640625 C 33.90625 -45.828125 36.207031 -44.53125 37.9375 -42.75 C 39.664062 -40.96875 40.925781 -38.5625 41.71875 -35.53125 C 42.507812 -32.507812 42.90625 -28.65625 42.90625 -23.96875 C 42.90625 -15.675781 41.046875 -9.609375 37.328125 -5.765625 C 33.617188 -1.921875 27.640625 0 19.390625 0 Z M 33.0625 -38.09375 C 31.882812 -39.46875 30.253906 -40.457031 28.171875 -41.0625 C 26.085938 -41.675781 23.160156 -41.984375 19.390625 -41.984375 L 11.984375 -41.984375 L 11.984375 -6.109375 L 19.390625 -6.109375 C 25.703125 -6.109375 30.09375 -7.457031 32.5625 -10.15625 C 35.03125 -12.851562 36.265625 -17.457031 36.265625 -23.96875 C 36.265625 -27.582031 36.007812 -30.507812 35.5 -32.75 C 34.988281 -34.988281 34.175781 -36.769531 33.0625 -38.09375 Z M 33.0625 -38.09375 "/></g></g></g><g fill="#161a40" fill-opacity="1"><g transform="translate(787.141679, 590.94755)"><g><path d="M 11.984375 0 L 5.5 0 L 5.5 -47.875 L 11.984375 -47.875 L 11.984375 -27.25 L 37.03125 -27.25 L 37.03125 -47.875 L 43.515625 -47.875 L 43.515625 0 L 37.03125 0 L 37.03125 -21.296875 L 11.984375 -21.296875 Z M 11.984375 0 "/></g></g></g><g fill="#161a40" fill-opacity="1"><g transform="translate(870.514355, 590.94755)"><g><path d="M 37.25 -6.109375 L 37.25 0 L 5.5 0 L 5.5 -47.875 L 36.5625 -47.875 L 36.5625 -41.984375 L 11.984375 -41.984375 L 11.984375 -27.328125 L 33.75 -27.328125 L 33.75 -21.609375 L 11.984375 -21.609375 L 11.984375 -6.109375 Z M 37.25 -6.109375 "/></g></g></g><g fill="#161a40" fill-opacity="1"><g transform="translate(944.80166, 590.94755)"><g><path d="M 11.984375 -47.875 L 11.984375 0 L 5.5 0 L 5.5 -47.875 Z M 11.984375 -47.875 "/></g></g></g><g fill="#161a40" fill-opacity="1"><g transform="translate(996.642752, 590.94755)"><g><path d="M 19.390625 0 L 5.5 0 L 5.5 -47.875 L 19.390625 -47.875 C 24.273438 -47.875 28.15625 -47.460938 31.03125 -46.640625 C 33.90625 -45.828125 36.207031 -44.53125 37.9375 -42.75 C 39.664062 -40.96875 40.925781 -38.5625 41.71875 -35.53125 C 42.507812 -32.507812 42.90625 -28.65625 42.90625 -23.96875 C 42.90625 -15.675781 41.046875 -9.609375 37.328125 -5.765625 C 33.617188 -1.921875 27.640625 0 19.390625 0 Z M 33.0625 -38.09375 C 31.882812 -39.46875 30.253906 -40.457031 28.171875 -41.0625 C 26.085938 -41.675781 23.160156 -41.984375 19.390625 -41.984375 L 11.984375 -41.984375 L 11.984375 -6.109375 L 19.390625 -6.109375 C 25.703125 -6.109375 30.09375 -7.457031 32.5625 -10.15625 C 35.03125 -12.851562 36.265625 -17.457031 36.265625 -23.96875 C 36.265625 -27.582031 36.007812 -30.507812 35.5 -32.75 C 34.988281 -34.988281 34.175781 -36.769531 33.0625 -38.09375 Z M 33.0625 -38.09375 "/></g></g></g><g fill="#161a40" fill-opacity="1"><g transform="translate(1077.266924, 590.94755)"><g><path d="M 23.96875 -20.078125 L 12.375 -22.828125 C 9.164062 -23.585938 6.847656 -24.894531 5.421875 -26.75 C 3.992188 -28.613281 3.28125 -31.195312 3.28125 -34.5 C 3.28125 -39.34375 4.664062 -42.90625 7.4375 -45.1875 C 10.21875 -47.476562 14.535156 -48.625 20.390625 -48.625 C 22.828125 -48.625 25.023438 -48.507812 26.984375 -48.28125 C 28.941406 -48.050781 30.765625 -47.707031 32.453125 -47.25 L 32.453125 -41.375 C 30.304688 -41.882812 28.265625 -42.238281 26.328125 -42.4375 C 24.398438 -42.644531 22.394531 -42.75 20.3125 -42.75 C 16.382812 -42.75 13.632812 -42.175781 12.0625 -41.03125 C 10.488281 -39.882812 9.703125 -37.863281 9.703125 -34.96875 C 9.703125 -33.132812 10.066406 -31.742188 10.796875 -30.796875 C 11.535156 -29.859375 12.742188 -29.1875 14.421875 -28.78125 L 25.953125 -26.03125 C 30.023438 -25.0625 32.734375 -23.695312 34.078125 -21.9375 C 35.429688 -20.1875 36.109375 -17.476562 36.109375 -13.8125 C 36.109375 -8.570312 34.742188 -4.859375 32.015625 -2.671875 C 29.296875 -0.484375 24.988281 0.609375 19.09375 0.609375 C 15.976562 0.609375 12.984375 0.40625 10.109375 0 C 7.234375 -0.40625 4.957031 -0.941406 3.28125 -1.609375 L 3.28125 -7.703125 C 5.675781 -6.992188 8.222656 -6.445312 10.921875 -6.0625 C 13.617188 -5.6875 16.34375 -5.5 19.09375 -5.5 C 22.90625 -5.5 25.570312 -6.054688 27.09375 -7.171875 C 28.625 -8.296875 29.390625 -10.460938 29.390625 -13.671875 C 29.390625 -15.648438 29.019531 -17.082031 28.28125 -17.96875 C 27.539062 -18.863281 26.101562 -19.566406 23.96875 -20.078125 Z M 23.96875 -20.078125 "/></g></g></g><g fill="#161a40" fill-opacity="1"><g transform="translate(1150.103621, 590.94755)"><g><path d="M 37.03125 -6.109375 L 37.03125 0 L 1.828125 0 L 1.828125 -6.109375 L 28.25 -41.984375 L 4.046875 -41.984375 L 4.046875 -47.875 L 35.578125 -47.875 L 35.578125 -41.984375 L 9.234375 -6.109375 Z M 37.03125 -6.109375 "/></g></g></g><g fill="#161a40" fill-opacity="1"><g transform="translate(1223.245737, 590.94755)"><g><path d="M 46.109375 -24.046875 C 46.109375 -15.347656 44.441406 -9.0625 41.109375 -5.1875 C 37.773438 -1.320312 32.34375 0.609375 24.8125 0.609375 C 16.71875 0.609375 11.128906 -1.179688 8.046875 -4.765625 C 4.972656 -8.359375 3.4375 -14.785156 3.4375 -24.046875 C 3.4375 -32.703125 5.113281 -38.960938 8.46875 -42.828125 C 11.832031 -46.691406 17.28125 -48.625 24.8125 -48.625 C 32.90625 -48.625 38.476562 -46.828125 41.53125 -43.234375 C 44.582031 -39.648438 46.109375 -33.253906 46.109375 -24.046875 Z M 12.296875 -10.234375 C 13.253906 -8.503906 14.675781 -7.28125 16.5625 -6.5625 C 18.445312 -5.851562 21.195312 -5.5 24.8125 -5.5 C 30.457031 -5.5 34.320312 -6.859375 36.40625 -9.578125 C 38.5 -12.304688 39.546875 -17.128906 39.546875 -24.046875 C 39.546875 -27.503906 39.367188 -30.335938 39.015625 -32.546875 C 38.660156 -34.765625 38.097656 -36.5625 37.328125 -37.9375 C 36.359375 -39.664062 34.945312 -40.898438 33.09375 -41.640625 C 31.238281 -42.378906 28.476562 -42.75 24.8125 -42.75 C 19.113281 -42.75 15.21875 -41.375 13.125 -38.625 C 11.039062 -35.875 10 -31.015625 10 -24.046875 C 10 -20.585938 10.175781 -17.75 10.53125 -15.53125 C 10.882812 -13.320312 11.472656 -11.554688 12.296875 -10.234375 Z M 12.296875 -10.234375 "/></g></g></g><g fill="#161a40" fill-opacity="1"><g transform="translate(1307.152807, 590.94755)"><g><path d="M 11.984375 -17.171875 L 11.984375 0 L 5.5 0 L 5.5 -47.875 L 21.765625 -47.875 C 28.523438 -47.875 33.367188 -46.710938 36.296875 -44.390625 C 39.222656 -42.078125 40.6875 -38.25 40.6875 -32.90625 C 40.6875 -28.726562 39.757812 -25.40625 37.90625 -22.9375 C 36.050781 -20.46875 33.238281 -18.800781 29.46875 -17.9375 L 41.984375 0 L 34.203125 0 L 22.59375 -17.171875 Z M 34.125 -32.90625 C 34.125 -36.164062 33.179688 -38.492188 31.296875 -39.890625 C 29.410156 -41.285156 26.234375 -41.984375 21.765625 -41.984375 L 11.984375 -41.984375 L 11.984375 -22.90625 L 21.765625 -22.90625 C 26.140625 -22.90625 29.289062 -23.691406 31.21875 -25.265625 C 33.15625 -26.847656 34.125 -29.394531 34.125 -32.90625 Z M 34.125 -32.90625 "/></g></g></g><g fill="#161a40" fill-opacity="1"><g transform="translate(1385.715578, 590.94755)"><g><path d="M 35.875 -19.625 L 23.4375 -19.625 L 23.4375 -25.34375 L 41.984375 -25.34375 L 41.984375 -2.296875 C 40.554688 -1.628906 38.007812 -0.976562 34.34375 -0.34375 C 30.6875 0.289062 27.359375 0.609375 24.359375 0.609375 C 16.460938 0.609375 11 -1.242188 7.96875 -4.953125 C 4.945312 -8.671875 3.4375 -15.007812 3.4375 -23.96875 C 3.4375 -32.414062 5.242188 -38.632812 8.859375 -42.625 C 12.472656 -46.625 18.144531 -48.625 25.875 -48.625 C 28.519531 -48.625 31.050781 -48.5625 33.46875 -48.4375 C 35.894531 -48.3125 37.867188 -48.125 39.390625 -47.875 L 39.390625 -42.140625 C 37.359375 -42.347656 35.15625 -42.5 32.78125 -42.59375 C 30.414062 -42.695312 28.113281 -42.75 25.875 -42.75 C 20.070312 -42.75 15.988281 -41.320312 13.625 -38.46875 C 11.257812 -35.625 10.078125 -30.789062 10.078125 -23.96875 C 10.078125 -20.613281 10.265625 -17.800781 10.640625 -15.53125 C 11.023438 -13.269531 11.648438 -11.453125 12.515625 -10.078125 C 13.535156 -8.347656 14.988281 -7.113281 16.875 -6.375 C 18.757812 -5.632812 21.503906 -5.265625 25.109375 -5.265625 C 26.535156 -5.265625 28.21875 -5.378906 30.15625 -5.609375 C 32.09375 -5.835938 34 -6.15625 35.875 -6.5625 Z M 35.875 -19.625 "/></g></g></g></svg>